<svg width="24" height="25" viewBox="0 0 24 25" fill="none" xmlns="http://www.w3.org/2000/svg">
  <path d="M0.75 23.85H22.725" stroke="#000000" stroke-width="1.5" stroke-linecap="round" stroke-linejoin="round"/>
  <path d="M2.0249 21.15C2.42839 18.8515 3.62496 16.7673 5.40639 15.2599C7.18783 13.7525 9.44137 12.9175 11.7749 12.9C14.1037 12.9054 16.3548 13.7379 18.1269 15.2489C19.8989 16.7599 21.0766 18.8513 21.4499 21.15" stroke="#000000" stroke-width="1.5" stroke-linecap="round" stroke-linejoin="round"/>
  <path d="M11.775 12.825C12.8519 12.825 13.725 11.9519 13.725 10.875C13.725 9.79804 12.8519 8.92499 11.775 8.92499C10.698 8.92499 9.82495 9.79804 9.82495 10.875C9.82495 11.9519 10.698 12.825 11.775 12.825Z" stroke="#000000" stroke-width="1.5" stroke-linecap="round" stroke-linejoin="round"/>
  <path d="M11.7749 3V5.77499" stroke="#000000" stroke-width="1.5" stroke-linecap="round" stroke-linejoin="round"/>
  <path d="M6 4.875V7.575" stroke="#000000" stroke-width="1.5" stroke-linecap="round" stroke-linejoin="round"/>
  <path d="M17.55 4.875V7.575" stroke="#000000" stroke-width="1.5" stroke-linecap="round" stroke-linejoin="round"/>
</svg>